<svg width="250" height="250" viewBox="0 0 250 250" fill="none" xmlns="http://www.w3.org/2000/svg">
<g clip-path="url(#clip0_234_374)">
<path d="M151.637 56.394H150.477V23.8413C150.477 18.8443 148.538 14.0519 145.088 10.5185C141.637 6.98507 136.957 5 132.077 5H64.7239C62.3077 5 59.915 5.48734 57.6827 6.43421C55.4503 7.38108 53.422 8.76892 51.7134 10.5185C50.0048 12.2681 48.6495 14.3451 47.7248 16.6311C46.8001 18.917 46.3242 21.3671 46.3242 23.8413V202.431C46.3242 207.428 48.2628 212.22 51.7134 215.754C55.164 219.287 59.844 221.272 64.7239 221.272H132.077C136.957 221.272 141.637 219.287 145.087 215.753C148.538 212.22 150.476 207.428 150.476 202.431V79.5656H151.637L151.637 56.394Z" fill="#005EA6"/>
<path d="M132.82 9.90002H124.028C124.433 10.9151 124.587 12.0164 124.478 13.107C124.369 14.1975 123.999 15.2438 123.402 16.1537C122.805 17.0635 121.998 17.809 121.053 18.3245C120.108 18.8399 119.054 19.1095 117.984 19.1094H79.3978C78.3273 19.1094 77.2732 18.8397 76.3284 18.3243C75.3836 17.8088 74.5771 17.0633 73.98 16.1534C73.3829 15.2436 73.0134 14.1973 72.9041 13.1068C72.7949 12.0163 72.9492 10.9151 73.3535 9.90002H65.1421C61.4978 9.90003 58.0028 11.3825 55.4259 14.0212C52.8491 16.6599 51.4014 20.2388 51.4014 23.9705V202.301C51.4014 206.032 52.8491 209.611 55.4259 212.25C58.0028 214.889 61.4978 216.371 65.1421 216.371H132.82C136.464 216.371 139.959 214.889 142.536 212.25C145.113 209.611 146.56 206.032 146.56 202.301V23.9703C146.56 20.2386 145.112 16.6598 142.536 14.0211C139.959 11.3824 136.464 9.90002 132.82 9.90002Z" fill="white"/>
<path d="M249.696 220.672H6.16303C6.0825 220.672 6.00526 220.64 5.94831 220.581C5.89137 220.523 5.85938 220.444 5.85938 220.361C5.85938 220.279 5.89137 220.2 5.94831 220.142C6.00526 220.083 6.0825 220.051 6.16303 220.051H249.696C249.777 220.051 249.854 220.083 249.911 220.142C249.968 220.2 250 220.279 250 220.361C250 220.444 249.968 220.523 249.911 220.581C249.854 220.64 249.777 220.672 249.696 220.672Z" fill="#E6E6E6"/>
<path d="M187.971 218.087C188.898 217.318 189.573 216.277 189.907 215.103C190.154 213.916 189.66 212.522 188.556 212.063C187.315 211.572 185.989 212.455 184.986 213.343C183.983 214.231 182.828 215.248 181.513 215.057C182.187 214.428 182.69 213.631 182.974 212.743C183.257 211.856 183.311 210.908 183.131 209.992C183.077 209.612 182.919 209.254 182.677 208.96C181.991 208.206 180.741 208.531 179.914 209.125C177.293 211.015 176.562 214.659 176.552 217.943C176.284 216.755 176.506 215.522 176.501 214.329C176.496 213.136 176.168 211.748 175.17 211.118C174.551 210.777 173.856 210.608 173.154 210.628C171.974 210.586 170.663 210.705 169.856 211.588C168.848 212.682 169.115 214.525 169.988 215.718C170.86 216.91 172.181 217.68 173.396 218.516C174.374 219.11 175.209 219.924 175.836 220.896C175.91 221.03 175.971 221.172 176.017 221.319H183.403C185.061 220.458 186.598 219.371 187.971 218.087Z" fill="#F2F2F2"/>
<g clip-path="url(#clip1_234_374)">
<path d="M236.911 151.203C237.307 150.759 237.603 150.231 237.779 149.657C237.955 149.083 238.005 148.476 237.928 147.879C237.85 147.283 237.645 146.711 237.329 146.204C237.012 145.697 236.591 145.268 236.095 144.946L229.362 108.087L221.173 111.2L230.366 146.452C229.894 147.342 229.757 148.379 229.98 149.366C230.204 150.354 230.773 151.222 231.58 151.808C232.387 152.393 233.375 152.655 234.357 152.544C235.34 152.433 236.248 151.956 236.911 151.203Z" fill="#A0616A"/>
<path d="M171.571 94.9614C171.591 95.1903 171.594 95.4204 171.579 95.6498L187.5 108.213L192.015 106.312L195.704 112.923L188.03 117.084C187.41 117.42 186.701 117.541 186.008 117.428C185.315 117.316 184.677 116.976 184.188 116.46L168.274 99.6395C167.432 99.8343 166.551 99.7615 165.75 99.4309C164.949 99.1002 164.265 98.5274 163.79 97.7885C163.314 97.0497 163.069 96.1798 163.087 95.2947C163.105 94.4096 163.386 93.5511 163.891 92.8334C164.397 92.1158 165.104 91.573 165.918 91.2773C166.732 90.9815 167.614 90.9469 168.448 91.1779C169.282 91.4089 170.027 91.8946 170.585 92.5705C171.143 93.2463 171.487 94.0803 171.571 94.9614Z" fill="#A0616A"/>
<path d="M208.767 216.624H204.184L202.004 202.333L208.768 202.334L208.767 216.624Z" fill="#A0616A"/>
<path d="M209.936 221.179L195.158 221.178V220.987C195.158 220.212 195.307 219.445 195.596 218.73C195.885 218.015 196.309 217.365 196.843 216.817C197.377 216.269 198.011 215.835 198.709 215.539C199.407 215.242 200.155 215.09 200.91 215.09L209.936 215.09L209.936 221.179Z" fill="#005EA6"/>
<path d="M225.963 216.624H221.38L219.2 202.333L225.964 202.334L225.963 216.624Z" fill="#A0616A"/>
<path d="M227.132 221.179L212.354 221.178V220.987C212.354 220.212 212.503 219.445 212.792 218.73C213.081 218.015 213.505 217.365 214.039 216.817C214.573 216.269 215.207 215.835 215.905 215.539C216.603 215.242 217.351 215.09 218.106 215.09L227.132 215.09L227.132 221.179Z" fill="#005EA6"/>
<path d="M203.233 213.8C202.814 213.8 202.411 213.64 202.101 213.352C201.792 213.063 201.599 212.666 201.56 212.239L197.566 157.17L197.755 157.154L225.239 154.838L225.246 155.038L227.431 212.086C227.44 212.317 227.403 212.548 227.322 212.765C227.241 212.982 227.119 213.179 226.962 213.346C226.805 213.513 226.617 213.646 226.408 213.737C226.2 213.828 225.976 213.875 225.75 213.875H220.361C219.959 213.876 219.569 213.73 219.264 213.461C218.959 213.193 218.758 212.82 218.699 212.412L211.38 166.328C211.373 166.28 211.349 166.237 211.312 166.207C211.275 166.177 211.229 166.163 211.182 166.166C211.135 166.17 211.091 166.191 211.059 166.226C211.027 166.261 211.009 166.308 211.009 166.356L210.677 211.857C210.673 212.296 210.507 212.718 210.21 213.036C209.914 213.353 209.511 213.543 209.083 213.567L203.323 213.797C203.293 213.799 203.262 213.8 203.233 213.8Z" fill="#005EA6"/>
<path d="M207.924 87.5742C212.995 87.5742 217.105 83.3598 217.105 78.1611C217.105 72.9624 212.995 68.748 207.924 68.748C202.853 68.748 198.742 72.9624 198.742 78.1611C198.742 83.3598 202.853 87.5742 207.924 87.5742Z" fill="#A0616A"/>
<path d="M209.701 160.682C205.688 160.67 201.694 160.11 197.825 159.018C197.453 158.907 197.129 158.667 196.909 158.34C196.689 158.013 196.585 157.618 196.616 157.222C197.852 138.177 198.142 123.397 195.543 113.171C194.435 108.813 194.938 104.223 196.923 100.578C199.91 95.0921 205.4 91.7534 211.256 91.8687C211.536 91.8741 211.818 91.8843 212.104 91.8994C220.991 92.3685 227.916 100.611 227.541 110.273L225.753 156.328C225.747 156.664 225.643 156.99 225.456 157.266C225.268 157.542 225.006 157.755 224.701 157.878C219.905 159.727 214.825 160.677 209.701 160.682Z" fill="#FECF0D"/>
<path d="M197.054 116.707L190.176 108.067C189.981 107.821 189.839 107.535 189.761 107.228C189.683 106.921 189.67 106.6 189.724 106.288C189.778 105.975 189.896 105.678 190.072 105.417C190.248 105.156 190.477 104.937 190.742 104.774L200.059 99.0828C201.291 98.0633 202.868 97.5865 204.443 97.7569C206.018 97.9274 207.463 98.7312 208.46 99.9921C209.458 101.253 209.927 102.868 209.765 104.483C209.603 106.098 208.823 107.581 207.595 108.608L200.314 116.799C200.106 117.033 199.85 117.219 199.565 117.343C199.281 117.467 198.973 117.527 198.664 117.518C198.354 117.51 198.05 117.433 197.772 117.293C197.495 117.153 197.25 116.953 197.054 116.707Z" fill="#FECF0D"/>
<path d="M218.689 115.623C218.407 115.493 218.155 115.303 217.951 115.064C217.747 114.826 217.595 114.545 217.507 114.241L214.41 103.623C213.738 102.153 213.662 100.469 214.199 98.9414C214.736 97.4139 215.843 96.167 217.275 95.4743C218.708 94.7816 220.35 94.6997 221.841 95.2464C223.332 95.7932 224.551 96.924 225.23 98.3909L231.218 107.661C231.389 107.926 231.502 108.225 231.55 108.538C231.598 108.852 231.579 109.172 231.495 109.478C231.411 109.783 231.264 110.067 231.064 110.309C230.864 110.551 230.615 110.745 230.335 110.88L220.483 115.608C220.203 115.742 219.897 115.814 219.588 115.816C219.278 115.819 218.972 115.753 218.689 115.623Z" fill="#FECF0D"/>
<path d="M212.461 85.8848L205.655 84.2878C204.953 84.123 204.109 83.8087 204.012 83.0772C203.881 82.0941 205.261 81.4092 205.134 80.4256C205.011 79.4729 203.754 79.3502 202.857 79.0689C202.022 78.7687 201.334 78.1473 200.938 77.3361C200.543 76.5249 200.47 75.5877 200.737 74.7228C199.767 76.1239 197.551 76.244 196.293 75.1088C195.035 73.9736 194.794 71.9139 195.549 70.3803C195.957 69.627 196.533 68.983 197.23 68.5009C197.926 68.0187 198.724 67.7119 199.558 67.6053C201.235 67.4104 202.931 67.7344 204.427 68.5358C204.526 67.4499 205.849 67.0097 206.913 67C209.123 67.0264 211.27 67.7584 213.055 69.0942C214.84 70.43 216.174 72.3031 216.873 74.4528C218.178 78.7652 217.305 83.4923 213.653 86.0155L212.461 85.8848Z" fill="#005EA6"/>
</g>
<rect x="61" y="126" width="76.1719" height="35" rx="5" fill="white" stroke="#005EA6" stroke-width="3"/>
<rect x="67.8359" y="135" width="3.90625" height="4" rx="1.95312" fill="#005EA6"/>
<rect x="112.758" y="135" width="14.6484" height="4" rx="2" fill="#005EA6"/>
<rect x="108.852" y="147" width="22.4609" height="4" rx="2" fill="#005EA6"/>
<rect x="75.6484" y="135" width="31.25" height="4" rx="2" fill="#005EA6"/>
<rect x="67.8359" y="147" width="37.1094" height="4" rx="2" fill="#005EA6"/>
<path d="M80.1933 53H77.8733L76.8973 50.312H72.7053L71.7293 53H69.4093L73.9852 41.176H75.6653L80.1933 53ZM76.2733 48.344L74.8173 44.296L73.3453 48.344H76.2733ZM82.5038 43.272C82.1198 43.272 81.7998 43.1493 81.5438 42.904C81.2878 42.6587 81.1598 42.344 81.1598 41.96C81.1598 41.5867 81.2878 41.2773 81.5438 41.032C81.8104 40.776 82.1304 40.648 82.5038 40.648C82.8771 40.648 83.1864 40.776 83.4318 41.032C83.6878 41.2773 83.8158 41.5867 83.8158 41.96C83.8158 42.344 83.6878 42.6587 83.4318 42.904C83.1864 43.1493 82.8771 43.272 82.5038 43.272ZM83.5278 44.312V53H81.4318V44.312H83.5278ZM87.6829 53H85.6029V44.312H87.6029V45.512C88.1362 44.5627 88.9415 44.088 90.0189 44.088C90.3815 44.088 90.7282 44.1467 91.0589 44.264L90.8829 46.264C90.5095 46.1467 90.1735 46.088 89.8749 46.088C89.2029 46.088 88.6695 46.3173 88.2749 46.776C87.8802 47.224 87.6829 47.8853 87.6829 48.76V53ZM97.9034 50.856L98.5594 52.488C97.8767 52.968 97.0394 53.208 96.0474 53.208C94.0634 53.208 93.0714 52.0773 93.0714 49.816V46.072H91.6314V44.312H93.1034V41.24H95.1674V44.312H98.0794V46.072H95.1674V49.736C95.1674 50.7813 95.5887 51.304 96.4314 51.304C96.922 51.304 97.4127 51.1547 97.9034 50.856ZM100.769 43.272C100.385 43.272 100.065 43.1493 99.8094 42.904C99.5534 42.6587 99.4254 42.344 99.4254 41.96C99.4254 41.5867 99.5534 41.2773 99.8094 41.032C100.076 40.776 100.396 40.648 100.769 40.648C101.143 40.648 101.452 40.776 101.697 41.032C101.953 41.2773 102.081 41.5867 102.081 41.96C102.081 42.344 101.953 42.6587 101.697 42.904C101.452 43.1493 101.143 43.272 100.769 43.272ZM101.793 44.312V53H99.6974V44.312H101.793ZM114.269 44.072C115.293 44.072 116.135 44.4027 116.797 45.064C117.458 45.7253 117.789 46.6267 117.789 47.768V53H115.693V48.152C115.693 47.4587 115.527 46.9253 115.197 46.552C114.877 46.1787 114.439 45.992 113.885 45.992C113.298 45.992 112.818 46.1947 112.445 46.6C112.071 47.0053 111.885 47.544 111.885 48.216V53H109.805V48.168C109.805 47.496 109.634 46.968 109.293 46.584C108.962 46.1893 108.519 45.992 107.965 45.992C107.378 45.992 106.893 46.2 106.509 46.616C106.135 47.0213 105.949 47.56 105.949 48.232V53H103.868V44.312H105.917V45.56C106.162 45.1013 106.519 44.7387 106.989 44.472C107.469 44.2053 107.991 44.072 108.557 44.072C109.143 44.0827 109.666 44.2213 110.125 44.488C110.583 44.7547 110.925 45.1333 111.149 45.624C111.458 45.1333 111.89 44.7547 112.445 44.488C112.999 44.2107 113.607 44.072 114.269 44.072ZM128.158 48.472C128.158 48.7493 128.137 49.0587 128.094 49.4H121.47C121.609 50.0187 121.902 50.5093 122.35 50.872C122.809 51.224 123.401 51.4 124.126 51.4C125.182 51.4 126.137 51.1013 126.99 50.504L127.822 51.992C126.745 52.792 125.486 53.192 124.046 53.192C123.257 53.192 122.553 53.064 121.934 52.808C121.326 52.552 120.835 52.2107 120.462 51.784C120.089 51.3467 119.806 50.8667 119.614 50.344C119.433 49.8107 119.342 49.2453 119.342 48.648C119.342 47.3253 119.758 46.2427 120.59 45.4C121.433 44.536 122.521 44.104 123.854 44.104C125.102 44.104 126.131 44.4987 126.942 45.288C127.753 46.0667 128.158 47.128 128.158 48.472ZM123.854 45.848C123.246 45.848 122.729 46.024 122.302 46.376C121.886 46.728 121.609 47.208 121.47 47.816H126.11C126.025 47.208 125.774 46.728 125.358 46.376C124.953 46.024 124.451 45.848 123.854 45.848Z" fill="#005EA6"/>
<path d="M107.274 90.9766L105.909 89.8552L100.289 94.81L99.9248 75.1529L98.1462 75.1529L98.388 94.8427L92.6005 90.0851L91.2759 91.2529L99.3923 97.9251L107.274 90.9766Z" fill="#005EA6"/>
</g>
<defs>
<clipPath id="clip0_234_374">
<rect width="250" height="250" fill="white"/>
</clipPath>
<clipPath id="clip1_234_374">
<rect width="131" height="160" fill="white" transform="translate(153 61)"/>
</clipPath>
</defs>
</svg>
