<svg width="41" height="40" viewBox="0 0 41 40" fill="none" xmlns="http://www.w3.org/2000/svg">
<rect x="0.5" width="40" height="40" rx="5" fill="#0047BA"/>
<path d="M14.875 10.6273V12.5023H32.6875V16.2139L30.6074 22.8148H14.2851L11.9413 5.9375H6.4375V7.8125H10.3087L12.6524 24.6898H31.9825L34.5625 16.5023V10.6273H14.875ZM15.8702 26.5827C14.8759 26.5838 13.9228 26.9792 13.2198 27.6823C12.5167 28.3853 12.1213 29.3384 12.1202 30.3327C12.1202 31.3272 12.5152 32.281 13.2185 32.9843C13.9218 33.6876 14.8756 34.0827 15.8702 34.0827C16.8647 34.0827 17.8185 33.6876 18.5218 32.9843C19.2251 32.281 19.6202 31.3272 19.6202 30.3327C19.619 29.3384 19.2236 28.3853 18.5206 27.6822C17.8176 26.9792 16.8644 26.5838 15.8702 26.5827ZM15.8702 32.2077C15.4993 32.2077 15.1368 32.0977 14.8285 31.8917C14.5201 31.6856 14.2798 31.3928 14.1379 31.0502C13.996 30.7076 13.9588 30.3306 14.0312 29.9669C14.1035 29.6031 14.2821 29.2691 14.5443 29.0068C14.8066 28.7446 15.1406 28.566 15.5044 28.4937C15.8681 28.4213 16.2451 28.4585 16.5877 28.6004C16.9303 28.7423 17.2231 28.9826 17.4292 29.291C17.6352 29.5993 17.7452 29.9618 17.7452 30.3327C17.7446 30.8298 17.5468 31.3063 17.1953 31.6578C16.8438 32.0093 16.3673 32.2071 15.8702 32.2077ZM28.9952 26.5827C28.0009 26.5838 27.0478 26.9792 26.3448 27.6823C25.6417 28.3853 25.2463 29.3384 25.2452 30.3327C25.2452 31.3272 25.6402 32.281 26.3435 32.9843C27.0468 33.6876 28.0006 34.0827 28.9952 34.0827C29.9897 34.0827 30.9435 33.6876 31.6468 32.9843C32.3501 32.281 32.7452 31.3272 32.7452 30.3327C32.744 29.3384 32.3486 28.3853 31.6456 27.6822C30.9426 26.9792 29.9894 26.5838 28.9952 26.5827ZM28.9952 32.2077C28.6243 32.2077 28.2618 32.0977 27.9535 31.8917C27.6451 31.6856 27.4048 31.3928 27.2629 31.0502C27.121 30.7076 27.0838 30.3306 27.1562 29.9669C27.2285 29.6031 27.4071 29.2691 27.6693 29.0068C27.9316 28.7446 28.2656 28.566 28.6294 28.4937C28.9931 28.4213 29.3701 28.4585 29.7127 28.6004C30.0553 28.7423 30.3481 28.9826 30.5542 29.291C30.7602 29.5993 30.8702 29.9618 30.8702 30.3327C30.8696 30.8298 30.6718 31.3063 30.3203 31.6578C29.9688 32.0093 29.4923 32.2071 28.9952 32.2077Z" fill="white"/>
</svg>
