<svg width="41" height="40" viewBox="0 0 41 40" fill="none" xmlns="http://www.w3.org/2000/svg">
<rect x="0.5" width="40" height="40" rx="5" fill="#0047BA"/>
<path d="M23.8626 7.76263L10.9126 19.3626C10.1126 20.0876 10.5626 21.4251 11.6376 21.5251L21.7501 22.5001L15.6876 30.9501C15.4125 31.3376 15.45 31.8751 15.7875 32.2126C16.1625 32.5876 16.7501 32.6001 17.1376 32.2376L30.0876 20.6376C30.8876 19.9126 30.4376 18.5751 29.3626 18.4751L19.2501 17.5001L25.3126 9.05013C25.5876 8.66263 25.5501 8.12513 25.2126 7.78763C25.0358 7.60715 24.7952 7.50338 24.5427 7.4987C24.2901 7.49402 24.0458 7.58882 23.8626 7.76263Z" fill="white"/>
</svg>
