<svg width="37" height="37" viewBox="0 0 37 37" fill="none" xmlns="http://www.w3.org/2000/svg">
<path d="M18.988 8.30078V12.2383M18.988 8.30078C18.988 7.52202 19.219 6.76074 19.6516 6.11323C20.0843 5.46571 20.6992 4.96103 21.4187 4.66301C22.1382 4.36499 22.9299 4.28701 23.6937 4.43894C24.4575 4.59087 25.1591 4.96588 25.7098 5.51655C26.2604 6.06722 26.6355 6.76881 26.7874 7.53262C26.9393 8.29642 26.8613 9.08812 26.5633 9.8076C26.2653 10.5271 25.7606 11.142 25.1131 11.5747C24.4656 12.0074 23.7043 12.2383 22.9255 12.2383H18.988M18.988 8.30078C18.988 7.52202 18.7571 6.76074 18.3245 6.11323C17.8918 5.46571 17.2768 4.96103 16.5574 4.66301C15.8379 4.36499 15.0462 4.28701 14.2824 4.43894C13.5186 4.59087 12.817 4.96588 12.2663 5.51655C11.7156 6.06722 11.3406 6.76881 11.1887 7.53262C11.0368 8.29642 11.1147 9.08812 11.4128 9.8076C11.7108 10.5271 12.2155 11.142 12.863 11.5747C13.5105 12.0074 14.2718 12.2383 15.0505 12.2383H18.988" stroke="#D7BD8C" stroke-width="2" stroke-miterlimit="10" stroke-linecap="round"/>
<path d="M30.238 12.2383L7.73804 12.2383C6.4954 12.2383 5.48804 13.2456 5.48804 14.4883V17.8633C5.48804 19.1059 6.4954 20.1133 7.73804 20.1133H30.238C31.4807 20.1133 32.488 19.1059 32.488 17.8633V14.4883C32.488 13.2456 31.4807 12.2383 30.238 12.2383Z" stroke="#D7BD8C" stroke-width="2" stroke-linecap="round" stroke-linejoin="round"/>
<path d="M30.238 20.1133V30.2383C30.238 31.1334 29.8825 31.9918 29.2495 32.6248C28.6166 33.2577 27.7581 33.6133 26.863 33.6133H11.113C10.2179 33.6133 9.35949 33.2577 8.72655 32.6248C8.09362 31.9918 7.73804 31.1334 7.73804 30.2383V20.1133M18.988 12.2383V33.6133" stroke="#D7BD8C" stroke-width="2" stroke-linecap="round" stroke-linejoin="round"/>
</svg>
