<svg width="41" height="40" viewBox="0 0 41 40" fill="none" xmlns="http://www.w3.org/2000/svg">
<rect x="0.5" width="40" height="40" rx="5" fill="#0047BA"/>
<path fill-rule="evenodd" clip-rule="evenodd" d="M7.375 20C7.375 23.481 8.75781 26.8194 11.2192 29.2808C13.6806 31.7422 17.019 33.125 20.5 33.125C23.981 33.125 27.3194 31.7422 29.7808 29.2808C32.2422 26.8194 33.625 23.481 33.625 20C33.625 16.519 32.2422 13.1806 29.7808 10.7192C27.3194 8.25781 23.981 6.875 20.5 6.875C17.019 6.875 13.6806 8.25781 11.2192 10.7192C8.75781 13.1806 7.375 16.519 7.375 20ZM31.375 20C31.375 22.8842 30.2292 25.6503 28.1898 27.6898C26.1503 29.7292 23.3842 30.875 20.5 30.875C17.6158 30.875 14.8497 29.7292 12.8102 27.6898C10.7708 25.6503 9.625 22.8842 9.625 20C9.625 17.1158 10.7708 14.3497 12.8102 12.3102C14.8497 10.2708 17.6158 9.125 20.5 9.125C23.3842 9.125 26.1503 10.2708 28.1898 12.3102C30.2292 14.3497 31.375 17.1158 31.375 20Z" fill="white"/>
<path fill-rule="evenodd" clip-rule="evenodd" d="M14.875 20C14.875 26.783 17.1115 32.375 20.5 32.375C23.8885 32.375 26.125 26.783 26.125 20C26.125 13.217 23.8885 7.625 20.5 7.625C17.1115 7.625 14.875 13.217 14.875 20ZM23.875 20C23.875 25.643 22.0825 30.125 20.5 30.125C18.9175 30.125 17.125 25.643 17.125 20C17.125 14.357 18.9175 9.875 20.5 9.875C22.0825 9.875 23.875 14.357 23.875 20Z" fill="white"/>
<path d="M10.903 13.2007L12.412 11.5327C12.562 11.6677 12.7255 11.8027 12.8995 11.9332C14.806 13.3612 17.8495 14.2432 21.172 14.2432C24.0085 14.2432 26.65 13.6027 28.5685 12.5062C29.0305 12.2422 29.4415 11.9557 29.797 11.6512L31.258 13.3627C30.7699 13.7767 30.2435 14.1434 29.686 14.4577C27.412 15.7597 24.385 16.4917 21.172 16.4917C17.389 16.4917 13.8745 15.4747 11.5495 13.7332C11.3259 13.5657 11.1102 13.388 10.903 13.2007ZM10.903 26.8237L12.412 28.4917C12.562 28.3552 12.7255 28.2217 12.8995 28.0912C14.806 26.6632 17.8495 25.7812 21.172 25.7812C24.0085 25.7812 26.65 26.4217 28.5685 27.5182C29.0305 27.7822 29.4415 28.0687 29.797 28.3732L31.258 26.6617C30.7693 26.2485 30.243 25.8819 29.686 25.5667C27.412 24.2647 24.385 23.5327 21.172 23.5327C17.389 23.5327 13.8745 24.5497 11.5495 26.2912C11.3259 26.4587 11.1102 26.6364 10.903 26.8237ZM8.125 21.1252V18.8752H32.875V21.1252H8.125Z" fill="white"/>
</svg>
