<svg width="40" height="40" viewBox="0 0 40 40" fill="none" xmlns="http://www.w3.org/2000/svg">
<rect width="40" height="40" rx="5" fill="#0047BA"/>
<path fill-rule="evenodd" clip-rule="evenodd" d="M13 17C13 18.8565 13.7375 20.637 15.0503 21.9497C16.363 23.2625 18.1435 24 20 24C21.8565 24 23.637 23.2625 24.9497 21.9497C26.2625 20.637 27 18.8565 27 17C27 15.1435 26.2625 13.363 24.9497 12.0503C23.637 10.7375 21.8565 10 20 10C18.1435 10 16.363 10.7375 15.0503 12.0503C13.7375 13.363 13 15.1435 13 17ZM25.8 17C25.8 18.5383 25.1889 20.0135 24.1012 21.1012C23.0135 22.1889 21.5383 22.8 20 22.8C18.4617 22.8 16.9865 22.1889 15.8988 21.1012C14.8111 20.0135 14.2 18.5383 14.2 17C14.2 15.4617 14.8111 13.9865 15.8988 12.8988C16.9865 11.8111 18.4617 11.2 20 11.2C21.5383 11.2 23.0135 11.8111 24.1012 12.8988C25.1889 13.9865 25.8 15.4617 25.8 17Z" fill="white"/>
<path fill-rule="evenodd" clip-rule="evenodd" d="M16.9999 16.9999C16.9999 20.6175 18.1927 23.5999 19.9999 23.5999C21.8071 23.5999 22.9999 20.6175 22.9999 16.9999C22.9999 13.3823 21.8071 10.3999 19.9999 10.3999C18.1927 10.3999 16.9999 13.3823 16.9999 16.9999ZM21.7999 16.9999C21.7999 20.0095 20.8439 22.3999 19.9999 22.3999C19.1559 22.3999 18.1999 20.0095 18.1999 16.9999C18.1999 13.9903 19.1559 11.5999 19.9999 11.5999C20.8439 11.5999 21.7999 13.9903 21.7999 16.9999Z" fill="white"/>
<path d="M13.3999 17.5999V16.3999H26.5999V17.5999H13.3999Z" fill="white"/>
<rect x="13.4845" y="27.7998" width="13.1627" height="1.8" rx="0.9" fill="white"/>
<path d="M9 9C9 7.34315 10.3431 6 12 6H30C30.5523 6 31 6.44772 31 7V33C31 33.5523 30.5523 34 30 34H12C10.3431 34 9 32.6569 9 31V9Z" stroke="white" stroke-width="2"/>
</svg>
