<svg width="18" height="18" viewBox="0 0 18 18" fill="none" xmlns="http://www.w3.org/2000/svg">
<path d="M12.6463 3.365L13.9119 2.09938C14.4611 1.55021 15.3514 1.55021 15.9006 2.09938C16.4498 2.64856 16.4498 3.53894 15.9006 4.08812L7.93664 12.0521C7.54013 12.4486 7.05108 12.7401 6.51367 12.9002L4.5 13.5L5.09984 11.4863C5.25992 10.9489 5.55138 10.4599 5.94789 10.0634L12.6463 3.365ZM12.6463 3.365L14.625 5.34374M13.5 10.5V14.0625C13.5 14.9945 12.7445 15.75 11.8125 15.75H3.9375C3.00552 15.75 2.25 14.9945 2.25 14.0625V6.18749C2.25 5.25551 3.00552 4.49999 3.9375 4.49999H7.5" stroke="#0F172A" stroke-linecap="round" stroke-linejoin="round"/>
</svg>
