<svg width="27" height="21" viewBox="0 0 27 21" fill="none" xmlns="http://www.w3.org/2000/svg">
<path d="M2.70752 8.6626H4.35156C5.35026 8.6626 6.05485 8.74935 6.46533 8.92285C6.97314 9.13867 7.35824 9.43913 7.62061 9.82422C7.88298 10.2093 8.01416 10.66 8.01416 11.1763C8.01416 11.7433 7.8597 12.2575 7.55078 12.7188C7.24609 13.1758 6.83561 13.5101 6.31934 13.7217C5.80306 13.929 4.94401 14.0412 3.74219 14.0581L3.20898 18H1.45068L2.70752 8.6626ZM3.95166 12.4077C4.90804 12.4035 5.53223 12.304 5.82422 12.1094C6.11621 11.9147 6.26221 11.6248 6.26221 11.2397C6.26221 11.0239 6.20508 10.842 6.09082 10.6938C5.97656 10.5457 5.80729 10.4421 5.58301 10.3828C5.35872 10.3236 4.91439 10.2939 4.25 10.2939L3.95166 12.4077ZM13.1748 8.6626H14.6538L16.9771 18H15.2759L14.7808 16.0132H11.0928L10.02 18H8.13477L13.1748 8.6626ZM14.3555 14.3628L13.6064 11.2969L11.9624 14.3628H14.3555ZM18.3291 8.6626H20.1001L21.5601 12.4014L24.2134 8.6626H26.2256L22.2393 14.2676L21.7378 18H19.9858L20.5 14.2676L18.3291 8.6626Z" fill="#D3AF35"/>
<path d="M4.47607 2.67285L3.78906 3.28125C3.50651 2.91667 3.24333 2.73438 2.99951 2.73438C2.87874 2.73438 2.77848 2.77083 2.69873 2.84375C2.61898 2.91439 2.5791 2.99984 2.5791 3.1001C2.5791 3.19352 2.61556 3.2972 2.68848 3.41113C2.76139 3.52507 2.98242 3.77686 3.35156 4.1665C3.54753 4.37386 3.67627 4.52083 3.73779 4.60742C3.8859 4.80794 3.99186 4.99593 4.05566 5.17139C4.12174 5.34456 4.15479 5.52116 4.15479 5.70117C4.15479 6.10449 4.01123 6.44287 3.72412 6.71631C3.43701 6.98975 3.06901 7.12646 2.62012 7.12646C1.93652 7.12646 1.37939 6.80176 0.94873 6.15234L1.67334 5.56787C1.96501 6.01221 2.2806 6.23438 2.62012 6.23438C2.7819 6.23438 2.91748 6.18197 3.02686 6.07715C3.13851 5.97233 3.19434 5.84587 3.19434 5.69775C3.19434 5.58154 3.16016 5.46305 3.0918 5.34229C3.02572 5.22152 2.83431 4.99365 2.51758 4.65869C2.18262 4.3055 1.96273 4.0389 1.85791 3.85889C1.71663 3.61507 1.646 3.37581 1.646 3.14111C1.646 2.83122 1.7474 2.55322 1.9502 2.30713C2.2054 1.99951 2.54948 1.8457 2.98242 1.8457C3.57715 1.8457 4.07503 2.12142 4.47607 2.67285ZM7.27539 1.97217H8.07178L9.32275 7H8.40674L8.14014 5.93018H6.1543L5.57666 7H4.56152L7.27539 1.97217ZM7.91113 5.0415L7.50781 3.39062L6.62256 5.0415H7.91113ZM10.7344 1.97217H11.5615L13.3833 5.39014L13.8447 1.97217H14.7642L14.0874 7H13.2808L11.4351 3.54443L10.9736 7H10.0679L10.7344 1.97217ZM15.2769 1.97217H18.3462L18.2368 2.86768H17.167L16.6235 7H15.687L16.2305 2.86768H15.1606L15.2769 1.97217ZM18.8213 1.97217H19.7441L19.0503 7H18.1445L18.8213 1.97217ZM21.1934 1.97217H22.0479L22.8989 5.47559L24.6353 1.97217H25.4487L25.5171 7H24.6353L24.5942 3.99219L23.104 7H22.3828L21.6172 3.8418L20.814 7H19.9116L21.1934 1.97217Z" fill="#191919"/>
</svg>
