<svg width="24" height="24" viewBox="0 0 24 24" fill="none" xmlns="http://www.w3.org/2000/svg">
<path fill-rule="evenodd" clip-rule="evenodd" d="M23.8987 0.822668C23.8321 0.662199 23.7347 0.516338 23.612 0.393334L23.6067 0.388001C23.3571 0.139193 23.019 -0.000363329 22.6667 7.10424e-07H14.6667C14.313 7.10424e-07 13.9739 0.140476 13.7239 0.390525C13.4738 0.640573 13.3333 0.979712 13.3333 1.33333C13.3333 1.68696 13.4738 2.02609 13.7239 2.27614C13.9739 2.52619 14.313 2.66667 14.6667 2.66667H19.448L9.724 12.3907C9.59665 12.5137 9.49508 12.6608 9.4252 12.8235C9.35532 12.9861 9.31854 13.1611 9.317 13.3381C9.31546 13.5152 9.3492 13.6907 9.41624 13.8546C9.48328 14.0185 9.58228 14.1673 9.70747 14.2925C9.83266 14.4177 9.98153 14.5167 10.1454 14.5838C10.3093 14.6508 10.4848 14.6845 10.6619 14.683C10.8389 14.6815 11.0139 14.6447 11.1765 14.5748C11.3392 14.5049 11.4863 14.4033 11.6093 14.276L21.3333 4.552V9.33333C21.3333 9.68696 21.4738 10.0261 21.7239 10.2761C21.9739 10.5262 22.313 10.6667 22.6667 10.6667C23.0203 10.6667 23.3594 10.5262 23.6095 10.2761C23.8595 10.0261 24 9.68696 24 9.33333V1.32933C23.9996 1.15545 23.9652 0.983323 23.8987 0.822668ZM0 6.66667C0 4.89856 0.702379 3.20286 1.95262 1.95262C3.20286 0.70238 4.89856 7.10424e-07 6.66667 7.10424e-07H8C8.35362 7.10424e-07 8.69276 0.140476 8.94281 0.390525C9.19286 0.640573 9.33333 0.979712 9.33333 1.33333C9.33333 1.68696 9.19286 2.02609 8.94281 2.27614C8.69276 2.52619 8.35362 2.66667 8 2.66667H6.66667C5.6058 2.66667 4.58839 3.08809 3.83824 3.83824C3.08809 4.58839 2.66667 5.6058 2.66667 6.66667V17.3333C2.66667 18.3942 3.08809 19.4116 3.83824 20.1618C4.58839 20.9119 5.6058 21.3333 6.66667 21.3333H17.3333C18.3942 21.3333 19.4116 20.9119 20.1618 20.1618C20.9119 19.4116 21.3333 18.3942 21.3333 17.3333V16C21.3333 15.6464 21.4738 15.3072 21.7239 15.0572C21.9739 14.8071 22.313 14.6667 22.6667 14.6667C23.0203 14.6667 23.3594 14.8071 23.6095 15.0572C23.8595 15.3072 24 15.6464 24 16V17.3333C24 19.1014 23.2976 20.7971 22.0474 22.0474C20.7971 23.2976 19.1014 24 17.3333 24H6.66667C4.89856 24 3.20286 23.2976 1.95262 22.0474C0.702379 20.7971 0 19.1014 0 17.3333V6.66667Z" fill="#263238"/>
</svg>
