<svg width="41" height="40" viewBox="0 0 41 40" fill="none" xmlns="http://www.w3.org/2000/svg">
<rect x="0.5" width="40" height="40" rx="5" fill="#0047BA"/>
<path d="M31.2196 12.2694L24.8003 5.30424C24.6213 5.11004 24.3797 5 24.1261 5H11.4545C10.9266 5 10.5 5.46283 10.5 6.03571V32.9643C10.5 33.5372 10.9266 34 11.4545 34H30.5455C31.0734 34 31.5 33.5372 31.5 32.9643V13.0041C31.5 12.729 31.3986 12.4636 31.2196 12.2694ZM29.2986 13.4799H23.6847V7.38862L29.2986 13.4799ZM29.3523 31.6696H12.6477V7.33036H21.6562V14.3214C21.6562 14.682 21.7882 15.0277 22.0232 15.2827C22.2582 15.5376 22.5768 15.6808 22.9091 15.6808H29.3523V31.6696Z" fill="white"/>
<rect x="14.5" y="10" width="5.7" height="1" rx="0.3" fill="white"/>
<rect x="14.5" y="13" width="5.7" height="1" rx="0.3" fill="white"/>
<rect x="7" y="18.5" width="27" height="11" fill="#0047BA" stroke="white"/>
<path d="M18.0748 21.82H16.2868L16.5588 21.364V27H15.6908V21.364L15.9908 21.82H14.1788V21.1H18.0748V21.82ZM19.7666 27.084C19.4466 27.084 19.1652 27.0333 18.9226 26.932C18.6826 26.8307 18.4959 26.6853 18.3626 26.496C18.2292 26.3067 18.1626 26.0787 18.1626 25.812C18.1626 25.5267 18.2372 25.2907 18.3866 25.104C18.5386 24.9173 18.7466 24.7733 19.0106 24.672C19.2772 24.568 19.5799 24.5 19.9186 24.468C20.4226 24.4173 20.7772 24.368 20.9826 24.32C21.1906 24.272 21.2946 24.1933 21.2946 24.084C21.2946 24.0813 21.2946 24.0787 21.2946 24.076C21.2946 23.86 21.2026 23.696 21.0186 23.584C20.8346 23.472 20.5719 23.416 20.2306 23.416C19.8706 23.416 19.5919 23.48 19.3946 23.608C19.1999 23.7333 19.1026 23.9333 19.1026 24.208H18.2506C18.2506 23.8827 18.3346 23.6067 18.5026 23.38C18.6732 23.1533 18.9079 22.9813 19.2066 22.864C19.5052 22.744 19.8479 22.684 20.2346 22.684C20.5892 22.684 20.9119 22.7387 21.2026 22.848C21.4959 22.9547 21.7292 23.1147 21.9026 23.328C22.0759 23.5413 22.1626 23.8067 22.1626 24.124C22.1626 24.18 22.1626 24.236 22.1626 24.292C22.1626 24.3453 22.1626 24.4 22.1626 24.456V26.152C22.1626 26.2507 22.1666 26.3467 22.1746 26.44C22.1826 26.5307 22.1972 26.612 22.2186 26.684C22.2426 26.7667 22.2706 26.8347 22.3026 26.888C22.3372 26.9413 22.3652 26.9787 22.3866 27H21.5226C21.5066 26.984 21.4826 26.9507 21.4506 26.9C21.4212 26.8467 21.3946 26.7853 21.3706 26.716C21.3466 26.6493 21.3279 26.5733 21.3146 26.488C21.3039 26.4 21.2986 26.3053 21.2986 26.204L21.4586 26.316C21.3786 26.4707 21.2572 26.6053 21.0946 26.72C20.9346 26.8347 20.7412 26.924 20.5146 26.988C20.2906 27.052 20.0412 27.084 19.7666 27.084ZM19.9466 26.364C20.1946 26.364 20.4199 26.3253 20.6226 26.248C20.8279 26.168 20.9919 26.048 21.1146 25.888C21.2372 25.7253 21.2986 25.5213 21.2986 25.276V24.572L21.5026 24.84C21.3319 24.9067 21.1226 24.9613 20.8746 25.004C20.6292 25.044 20.3759 25.0773 20.1146 25.104C19.7546 25.136 19.4839 25.1987 19.3026 25.292C19.1212 25.3827 19.0306 25.5347 19.0306 25.748C19.0306 25.9533 19.1052 26.108 19.2546 26.212C19.4066 26.3133 19.6372 26.364 19.9466 26.364ZM24.5844 24.712L24.5764 25.116L22.8844 22.752H23.8324L25.1724 24.652L24.6524 24.644L25.9604 22.752H26.8924L25.2604 24.992L25.2684 24.676L26.9164 27H25.9684L24.6204 25.116L25.2004 25.032L23.7524 27H22.8244L24.5844 24.712Z" fill="white"/>
</svg>
