<svg width="40" height="40" viewBox="0 0 40 40" fill="none" xmlns="http://www.w3.org/2000/svg">
<rect width="40" height="40" rx="5" fill="#0047BA"/>
<path d="M16.1328 25.625H23.8672C23.9961 25.625 24.1016 25.5195 24.1016 25.3906V22.9297C24.1016 22.8008 23.9961 22.6953 23.8672 22.6953H22.6953C22.5664 22.6953 22.4609 22.8008 22.4609 22.9297V23.9844H17.5391V22.9297C17.5391 22.8008 17.4336 22.6953 17.3047 22.6953H16.1328C16.0039 22.6953 15.8984 22.8008 15.8984 22.9297V25.3906C15.8984 25.5195 16.0039 25.625 16.1328 25.625ZM26.0937 22.0215C26.0937 22.3323 26.2172 22.6304 26.437 22.8501C26.6567 23.0699 26.9548 23.1934 27.2656 23.1934C27.5764 23.1934 27.8745 23.0699 28.0943 22.8501C28.314 22.6304 28.4375 22.3323 28.4375 22.0215C28.4375 21.7107 28.314 21.4126 28.0943 21.1928C27.8745 20.9731 27.5764 20.8496 27.2656 20.8496C26.9548 20.8496 26.6567 20.9731 26.437 21.1928C26.2172 21.4126 26.0937 21.7107 26.0937 22.0215ZM33.0957 17.1113L32.4014 15.8984C32.3701 15.845 32.319 15.806 32.2592 15.7901C32.1994 15.7742 32.1357 15.7826 32.082 15.8135L30.5967 16.6807L28.3027 10.3467C28.1816 9.96873 27.9435 9.63906 27.6228 9.40525C27.3021 9.17144 26.9154 9.0456 26.5185 9.0459H13.8242C12.8076 9.0459 11.9053 9.70215 11.5918 10.6719L9.40624 16.6836L7.91796 15.8164C7.8643 15.7855 7.8006 15.7771 7.74077 15.793C7.68094 15.809 7.62984 15.8479 7.59862 15.9014L6.90429 17.1113C6.83983 17.2227 6.87792 17.3633 6.98925 17.4277L8.75878 18.459L8.33397 19.6309C8.29882 19.7246 8.28124 19.8242 8.28124 19.9238V30.125C8.28124 30.585 8.62694 30.957 9.05175 30.957H11.0322C11.3926 30.957 11.706 30.6846 11.7822 30.3037L12.0078 29.1992H27.9922L28.2178 30.3037C28.2969 30.6846 28.6074 30.957 28.9678 30.957H30.9482C31.373 30.957 31.7187 30.585 31.7187 30.125V19.9238C31.7187 19.8242 31.7012 19.7246 31.666 19.6309L31.2412 18.459L33.0078 17.4277C33.061 17.397 33.1 17.3467 33.1164 17.2875C33.1329 17.2283 33.1254 17.1651 33.0957 17.1113ZM29.6094 20.1465V27.0898H10.3906V20.1465L10.8476 18.8867H29.1523L29.6094 20.1465ZM13.5752 11.3896L13.5898 11.3516L13.6016 11.3135C13.6338 11.2168 13.7217 11.1523 13.8242 11.1523H26.3516L28.5605 17.2461H11.4453L13.5752 11.3896ZM11.5625 22.0215C11.5625 22.3323 11.686 22.6304 11.9057 22.8501C12.1255 23.0699 12.4236 23.1934 12.7344 23.1934C13.0452 23.1934 13.3432 23.0699 13.563 22.8501C13.7828 22.6304 13.9062 22.3323 13.9062 22.0215C13.9062 21.7107 13.7828 21.4126 13.563 21.1928C13.3432 20.9731 13.0452 20.8496 12.7344 20.8496C12.4236 20.8496 12.1255 20.9731 11.9057 21.1928C11.686 21.4126 11.5625 21.7107 11.5625 22.0215Z" fill="white"/>
</svg>
